<?xml version="1.0" standalone="no"?>
<!DOCTYPE svg PUBLIC "-//W3C//DTD SVG 20010904//EN"
 "http://www.w3.org/TR/2001/REC-SVG-20010904/DTD/svg10.dtd">
<svg version="1.0" xmlns="http://www.w3.org/2000/svg"
 width="96.000000pt" height="96.000000pt" viewBox="0 0 96.000000 96.000000"
 preserveAspectRatio="xMidYMid meet">
<metadata>
Created by potrace 1.14, written by Peter Selinger 2001-2017
</metadata>
<g transform="translate(0.000000,96.000000) scale(0.100000,-0.100000)"
fill="#000000" stroke="none">
<path d="M116 940 c-51 -26 -94 -75 -107 -122 -6 -24 -9 -160 -7 -361 3 -314
4 -323 25 -358 13 -20 42 -49 65 -65 l41 -29 341 0 c390 0 391 0 449 84 l32
46 0 345 c0 340 0 346 -22 381 -13 20 -42 49 -65 65 l-41 29 -336 2 c-317 3
-338 2 -375 -17z"/>
</g>
</svg>
